<?xml version="1.0" encoding="iso-8859-1"?>
<!-- Generator: Adobe Illustrator 18.0.0, SVG Export Plug-In . SVG Version: 6.00 Build 0)  -->
<!DOCTYPE svg PUBLIC "-//W3C//DTD SVG 1.1//EN" "http://www.w3.org/Graphics/SVG/1.1/DTD/svg11.dtd">
<svg version="1.1" id="Capa_1" xmlns="http://www.w3.org/2000/svg" xmlns:xlink="http://www.w3.org/1999/xlink" x="0px" y="0px"
	 viewBox="0 0 55.752 55.752" style="enable-background:new 0 0 55.752 55.752;" xml:space="preserve">
<g>
	<path style="fill:#1D1D1B;" d="M47.141,54.241c-0.098-0.012-0.196-0.021-0.293-0.033c0.033-10.031-0.076-20.094-0.212-30.146
		c0.705-7.771,0.732-15.628,0.287-23.405c0.121-0.03,0.243-0.057,0.363-0.087c0.378-0.095,0.206-0.615-0.156-0.566
		C34.382,1.725,21.58,4.65,8.996,7.316C8.633,7.393,8.739,7.878,9.052,7.928C8.884,8.041,8.874,8.376,9.118,8.412
		c12.259,1.825,24.661,2.227,37.02,1.34c0.502-0.036,0.508-0.819,0-0.788C33.821,9.739,21.607,9.332,9.353,7.898
		C21.692,5.763,34.31,3.773,46.471,0.765c0.122,4.233,0.117,8.444,0.016,12.652c-0.017-1.149-0.033-2.301-0.049-3.449
		c-0.004-0.287-0.427-0.283-0.443,0c-0.795,14.564-0.842,29.585,0.18,44.163c-12.256-1.489-24.689-1.823-37.001-0.934
		c-0.315,0.023-0.322,0.506,0,0.496c6.336-0.212,12.672-0.3,19.01-0.098c2.851,0.091,5.701,0.239,8.546,0.442
		c1.515,0.108,7.856,1.484,9.489,0.771c0.016,0.22,0.027,0.442,0.043,0.662c0.028,0.372,0.585,0.383,0.587,0
		c0-0.073-0.001-0.147,0-0.22c0.001,0,0.002,0,0.003-0.001c0.161-0.097,0.323-0.193,0.484-0.29
		C47.691,54.745,47.499,54.286,47.141,54.241z"/>
	<path style="fill:#1D1D1B;" d="M8.731,7.945c-0.023-0.319-0.518-0.326-0.503,0c0.716,14.869,0.516,29.644,0.481,44.516
		c-0.001,0.393,0.577,0.384,0.605,0C10.365,37.722,9.812,22.665,8.731,7.945z"/>
	<path style="fill:#1D1D1B;" d="M21.912,34.755c-0.06-0.039-0.119-0.077-0.179-0.116c-0.194-0.125-0.397,0.025-0.439,0.209
		c-0.088-0.51-0.148-1.595-0.169-1.74c-0.084-0.589-0.169-1.178-0.254-1.767c-0.186-1.296-0.372-2.592-0.558-3.888
		c-0.047-0.33-0.585-0.388-0.722-0.094c-0.872,1.864-1.543,3.782-2.036,5.769c-0.992-2.292-1.984-4.584-2.977-6.876
		c-0.133-0.306-0.646-0.217-0.711,0.093c-0.641,3.059-1.161,6.599-0.316,9.658c0.053,0.191,0.317,0.14,0.332-0.045
		c0.213-2.774,0.106-5.44,0.515-8.175c0.975,2.258,1.951,4.517,2.926,6.775c0.134,0.31,0.652,0.219,0.718-0.094
		c0.397-1.891,0.965-3.707,1.7-5.479c0.175,1.208,0.35,2.416,0.525,3.625c0.15,1.035,0.043,2.345,0.877,3.069
		c0.132,0.115,0.3,0.142,0.457,0.059c0.346-0.183,0.383-0.232,0.457-0.62C22.088,34.971,22.039,34.838,21.912,34.755z"/>
	<path style="fill:#1D1D1B;" d="M27.646,28.142c-1.383-0.041-2.778,0.036-4.162,0.089c-0.081-0.039-0.175-0.042-0.246,0.01
		c-0.031,0.001-0.062,0.002-0.092,0.003c-0.271,0.009-0.276,0.384-0.031,0.429c-0.194,1.177-0.292,2.36-0.312,3.546
		c-0.069,0.019-0.141,0.04-0.208,0.059c-0.192,0.053-0.162,0.38,0.049,0.359c0.05-0.005,0.105-0.01,0.156-0.015
		c-0.001,0.75,0.016,1.501,0.067,2.253c0.011,0.16,0.108,0.323,0.275,0.361c1.133,0.26,2.209,0.22,3.23-0.367
		c0.293-0.168,0.099-0.646-0.232-0.549c-0.881,0.257-1.666,0.381-2.55,0.231c-0.066-0.666-0.098-1.33-0.116-1.994
		c0.76-0.075,1.553-0.174,2.228-0.409c0.266-0.093,0.241-0.525-0.07-0.514c-0.698,0.024-1.45,0.206-2.167,0.403
		c-0.011-1.108,0.037-2.217,0.126-3.332c1.349,0.053,2.708,0.124,4.055,0.085C28.062,28.777,28.063,28.155,27.646,28.142z"/>
	<path style="fill:#1D1D1B;" d="M33.836,27.898c-0.081-0.377-0.728-0.301-0.684,0.092c0.257,2.276,0.509,4.512,0.577,6.787
		c-1.427-2.263-2.549-4.668-3.307-7.255c-0.115-0.391-0.757-0.334-0.732,0.099c0.154,2.637,0.115,5.246-0.058,7.882
		c-0.027,0.416,0.589,0.397,0.636,0c0.212-1.791,0.287-3.592,0.261-5.392c0.848,2.177,1.933,4.238,3.279,6.18
		c0.204,0.295,0.694,0.202,0.697-0.189C34.526,33.375,34.414,30.572,33.836,27.898z"/>
	<path style="fill:#1D1D1B;" d="M40.284,28.437c-0.142-0.456-0.861-0.262-0.719,0.198c0.365,1.18,0.588,2.379,0.587,3.618
		c-0.001,1.066,0.013,4.703-2.382,3.471c-0.959-0.493-1.324-2.317-1.534-3.272c-0.29-1.316-0.361-2.644-0.333-3.986
		c0.007-0.328-0.474-0.317-0.503,0c-0.188,2.086-0.07,8.65,3.427,8.453c1.261-0.071,1.66-1.385,1.86-2.417
		C41.081,32.463,40.898,30.409,40.284,28.437z"/>
</g>
<g>
</g>
<g>
</g>
<g>
</g>
<g>
</g>
<g>
</g>
<g>
</g>
<g>
</g>
<g>
</g>
<g>
</g>
<g>
</g>
<g>
</g>
<g>
</g>
<g>
</g>
<g>
</g>
<g>
</g>
</svg>
